<svg width="2500" height="2358" viewBox="0 0 2500 2358" fill="none" xmlns="http://www.w3.org/2000/svg">
<path d="M735.313 1605.49C805.96 1605.49 872.283 1591.79 934.28 1564.4C997.718 1535.56 1052.51 1495.19 1098.64 1443.29C1144.78 1391.38 1181.55 1328.66 1208.94 1255.13C1237.78 1180.16 1252.19 1096.54 1252.19 1004.26C1252.19 911.986 1238.5 829.083 1211.1 755.552C1183.71 680.579 1146.22 617.14 1098.64 565.236C1051.06 513.332 995.556 473.682 932.117 446.288C870.12 418.894 804.519 405.197 735.313 405.197C647.363 405.197 575.274 423.94 519.044 461.427C462.814 497.472 413.794 541.446 371.982 593.351V0.775391H0V1601.16L376.307 1434.63C413.794 1480.77 460.652 1521.14 516.882 1555.75C574.553 1588.91 647.363 1605.49 735.313 1605.49ZM886.701 1002.1C886.701 1045.35 879.492 1085 865.074 1121.05C852.098 1157.09 834.075 1188.09 811.007 1214.04C787.938 1238.55 759.823 1258.02 726.662 1272.43C694.942 1286.85 661.06 1294.06 625.016 1294.06C588.971 1294.06 555.089 1286.85 523.37 1272.43C491.65 1258.02 464.256 1237.83 441.188 1211.88C418.119 1185.93 399.376 1155.65 384.958 1121.05C371.982 1086.44 365.494 1048.24 365.494 1006.42C365.494 964.611 371.982 925.683 384.958 889.638C399.376 853.594 418.119 823.316 441.188 798.806C464.256 772.854 491.65 752.668 523.37 738.251C555.089 723.833 588.971 716.624 625.016 716.624C661.06 716.624 694.942 723.833 726.662 738.251C759.823 752.668 787.938 772.854 811.007 798.806C835.517 824.758 854.26 855.035 867.236 889.638C880.212 924.241 886.701 961.728 886.701 1002.1Z" fill="#0A27F1"/>
<path d="M2136.66 1285.41C2106.39 1312.8 2073.23 1332.99 2037.18 1345.96C2002.58 1358.94 1965.81 1365.43 1926.88 1365.43C1902.37 1365.43 1879.3 1362.55 1857.68 1356.78C1836.05 1349.57 1817.31 1339.48 1801.45 1326.5C1785.59 1312.08 1772.61 1296.22 1762.52 1278.92C1752.43 1260.18 1747.38 1239.27 1747.38 1216.2C1747.38 1191.69 1752.43 1170.07 1762.52 1151.32C1774.05 1132.58 1788.47 1116.72 1805.77 1103.74C1824.52 1089.33 1846.86 1078.51 1872.82 1071.3C1898.77 1064.1 1926.88 1060.49 1957.16 1060.49C1993.21 1060.49 2026.37 1064.1 2056.65 1071.3C2088.36 1078.51 2115.04 1087.88 2136.66 1099.42V1285.41ZM2500 1601.16V909.103C2500 828.362 2488.46 756.994 2465.39 694.997C2442.32 633 2407 581.096 2359.42 539.284C2313.28 497.472 2254.89 466.473 2184.24 446.288C2115.04 424.661 2032.13 413.848 1935.53 413.848C1843.26 413.848 1760.36 422.499 1686.83 439.8C1614.74 455.66 1546.25 477.287 1481.37 504.681V772.854C1546.25 745.46 1608.25 726.716 1667.36 716.624C1726.48 705.089 1785.59 699.322 1844.7 699.322C1939.86 699.322 2011.95 715.182 2060.97 746.901C2111.43 777.179 2136.66 826.921 2136.66 896.126V919.916C2100.62 905.498 2056.65 893.964 2004.74 885.313C1954.28 875.221 1900.93 870.174 1844.7 870.174C1778.38 870.174 1717.1 878.104 1660.87 893.964C1606.09 908.382 1557.79 930.729 1515.97 961.007C1475.6 989.843 1443.88 1027.33 1420.82 1073.47C1397.75 1119.6 1386.21 1173.67 1386.21 1235.67C1386.21 1293.34 1396.31 1345.24 1416.49 1391.38C1438.12 1437.52 1466.95 1476.45 1503 1508.17C1540.48 1539.89 1583.74 1563.67 1632.76 1579.53C1683.22 1596.84 1735.85 1605.49 1790.63 1605.49C1867.05 1605.49 1932.65 1592.51 1987.44 1566.56C2043.67 1540.61 2092.69 1505.28 2134.5 1460.59L2500 1601.16Z" fill="#0A27F1"/>
<path d="M0 1737.29H2500V1783.99H0V1737.29Z" fill="#0A27F1"/>
<path d="M484.303 2254.93V2054.82C484.303 2039.03 481.935 2024.23 477.198 2010.41C472.857 1996.2 466.147 1983.97 457.068 1973.7C447.99 1963.05 436.938 1954.76 423.913 1948.84C410.888 1942.52 395.889 1939.37 378.917 1939.37C356.024 1939.37 335.894 1944.1 318.527 1953.57C301.555 1962.65 286.951 1975.28 274.715 1991.47C266.031 1973.7 253.598 1960.68 237.415 1952.39C221.232 1943.71 203.668 1939.37 184.722 1939.37C165.776 1939.37 148.212 1943.51 132.029 1951.8C116.241 1960.09 102.426 1971.73 90.5848 1986.73L0 1946.47V2254.93H91.1769V2083.83C91.1769 2074.35 92.361 2065.67 94.7292 2057.78C97.4921 2049.88 101.242 2043.17 105.978 2037.65C111.109 2032.12 117.03 2027.98 123.74 2025.21C130.45 2022.06 137.752 2020.48 145.646 2020.48C153.935 2020.48 161.237 2022.06 167.552 2025.21C173.868 2027.98 179.196 2032.12 183.538 2037.65C187.88 2042.78 191.037 2049.29 193.011 2057.18C195.379 2065.08 196.563 2073.96 196.563 2083.83V2254.93H287.74V2083.83C287.74 2075.14 288.924 2067.05 291.292 2059.55C293.661 2052.05 297.016 2045.34 301.357 2039.42C306.094 2033.5 311.817 2028.96 318.527 2025.81C325.632 2022.25 333.723 2020.48 342.801 2020.48C357.8 2020.48 369.839 2025.61 378.917 2035.87C388.39 2046.13 393.126 2062.12 393.126 2083.83V2254.93H484.303Z" fill="#0A27F1"/>
<path d="M704.803 2195.73C689.015 2195.73 675.397 2192.77 663.951 2186.85C652.504 2180.92 643.229 2172.64 636.124 2161.98L850.449 2107.51C849.66 2085.8 845.91 2064.88 839.2 2044.75C832.49 2024.23 822.622 2006.47 809.597 1991.47C796.966 1976.07 781.376 1963.84 762.825 1954.76C744.273 1945.68 722.959 1941.14 698.882 1941.14C675.595 1941.14 654.281 1945.29 634.94 1953.57C615.994 1961.47 599.614 1972.72 585.799 1987.32C571.985 2001.53 561.13 2018.5 553.236 2038.24C545.737 2057.58 541.987 2078.7 541.987 2101.59C541.987 2125.27 545.934 2146.98 553.828 2166.72C561.722 2186.45 572.774 2203.62 586.983 2218.22C601.193 2232.43 617.968 2243.68 637.308 2251.97C657.044 2259.87 678.752 2263.81 702.435 2263.81C711.908 2263.81 721.578 2263.02 731.445 2261.44C741.708 2260.26 751.97 2258.29 762.232 2255.52C772.495 2253.16 782.56 2249.8 792.427 2245.46C802.69 2241.12 812.163 2235.79 820.846 2229.47V2153.69C814.136 2160.01 806.045 2165.73 796.572 2170.86C787.494 2175.99 777.823 2180.53 767.561 2184.48C757.299 2188.03 746.839 2190.79 736.182 2192.77C725.525 2194.74 715.065 2195.73 704.803 2195.73ZM628.427 2097.44C628.427 2087.18 629.612 2076.92 631.98 2066.66C634.743 2056.4 638.69 2047.12 643.821 2038.83C649.347 2030.54 656.254 2023.83 664.543 2018.7C673.226 2013.18 683.291 2010.41 694.738 2010.41C711.71 2010.41 725.92 2015.54 737.366 2025.81C748.812 2036.07 756.509 2049.69 760.456 2066.66L629.612 2100.41L628.427 2097.44Z" fill="#0A27F1"/>
<path d="M1006.7 2195.73C998.018 2195.73 988.742 2194.54 978.875 2192.17C969.402 2189.81 959.731 2186.85 949.864 2183.29C940.391 2179.35 930.721 2174.81 920.853 2169.68C911.38 2164.15 902.697 2158.43 894.802 2152.51V2230.66C913.354 2239.34 931.905 2246.64 950.456 2252.56C969.007 2258.48 989.532 2261.44 1012.03 2261.44C1030.19 2261.44 1046.57 2259.27 1061.17 2254.93C1075.77 2250.2 1088.21 2243.68 1098.47 2235.39C1109.13 2226.71 1117.22 2216.45 1122.74 2204.61C1128.67 2192.37 1131.63 2178.75 1131.63 2163.76C1131.63 2146.39 1127.68 2131.98 1119.78 2120.53C1112.28 2109.09 1102.61 2099.62 1090.77 2092.12C1079.33 2084.22 1066.7 2077.91 1052.88 2073.17C1039.46 2068.04 1026.83 2063.5 1014.99 2059.55C1003.54 2055.21 993.873 2050.67 985.979 2045.94C978.48 2040.8 974.73 2034.49 974.73 2026.99C974.73 2021.07 977.296 2016.14 982.427 2012.19C987.953 2007.85 996.044 2005.68 1006.7 2005.68C1013.41 2005.68 1021.11 2006.66 1029.79 2008.64C1038.48 2010.61 1047.16 2013.18 1055.84 2016.33C1064.92 2019.49 1073.8 2023.24 1082.48 2027.58C1091.17 2031.92 1099.26 2036.46 1106.76 2041.2V1963.05C1098.86 1959.1 1090.97 1955.75 1083.08 1952.98C1075.58 1950.22 1067.88 1947.85 1059.99 1945.88C1052.09 1943.9 1043.61 1942.52 1034.53 1941.73C1025.84 1940.55 1016.57 1939.96 1006.7 1939.96C989.729 1939.96 974.138 1942.13 959.929 1946.47C945.719 1950.42 933.484 1956.53 923.221 1964.82C913.354 1972.72 905.46 1982.39 899.539 1993.83C894.013 2005.28 891.25 2018.5 891.25 2033.5C891.25 2050.87 895 2065.28 902.499 2076.72C910.393 2088.17 920.064 2097.64 931.51 2105.14C943.351 2112.64 955.982 2118.76 969.402 2123.5C983.216 2127.84 995.847 2132.18 1007.29 2136.52C1019.13 2140.47 1028.8 2145.01 1036.3 2150.14C1044.2 2154.87 1048.15 2161.19 1048.15 2169.08C1048.15 2178.16 1043.8 2184.87 1035.12 2189.21C1026.83 2193.56 1017.36 2195.73 1006.7 2195.73Z" fill="#0A27F1"/>
<path d="M1289.43 2195.73C1280.75 2195.73 1271.47 2194.54 1261.61 2192.17C1252.13 2189.81 1242.46 2186.85 1232.59 2183.29C1223.12 2179.35 1213.45 2174.81 1203.58 2169.68C1194.11 2164.15 1185.43 2158.43 1177.53 2152.51V2230.66C1196.08 2239.34 1214.64 2246.64 1233.19 2252.56C1251.74 2258.48 1272.26 2261.44 1294.76 2261.44C1312.92 2261.44 1329.3 2259.27 1343.9 2254.93C1358.51 2250.2 1370.94 2243.68 1381.2 2235.39C1391.86 2226.71 1399.95 2216.45 1405.48 2204.61C1411.4 2192.37 1414.36 2178.75 1414.36 2163.76C1414.36 2146.39 1410.41 2131.98 1402.52 2120.53C1395.02 2109.09 1385.35 2099.62 1373.5 2092.12C1362.06 2084.22 1349.43 2077.91 1335.61 2073.17C1322.19 2068.04 1309.56 2063.5 1297.72 2059.55C1286.27 2055.21 1276.6 2050.67 1268.71 2045.94C1261.21 2040.8 1257.46 2034.49 1257.46 2026.99C1257.46 2021.07 1260.03 2016.14 1265.16 2012.19C1270.68 2007.85 1278.77 2005.68 1289.43 2005.68C1296.14 2005.68 1303.84 2006.66 1312.52 2008.64C1321.21 2010.61 1329.89 2013.18 1338.57 2016.33C1347.65 2019.49 1356.53 2023.24 1365.22 2027.58C1373.9 2031.92 1381.99 2036.46 1389.49 2041.2V1963.05C1381.6 1959.1 1373.7 1955.75 1365.81 1952.98C1358.31 1950.22 1350.61 1947.85 1342.72 1945.88C1334.82 1943.9 1326.34 1942.52 1317.26 1941.73C1308.58 1940.55 1299.3 1939.96 1289.43 1939.96C1272.46 1939.96 1256.87 1942.13 1242.66 1946.47C1228.45 1950.42 1216.21 1956.53 1205.95 1964.82C1196.08 1972.72 1188.19 1982.39 1182.27 1993.83C1176.74 2005.28 1173.98 2018.5 1173.98 2033.5C1173.98 2050.87 1177.73 2065.28 1185.23 2076.72C1193.12 2088.17 1202.79 2097.64 1214.24 2105.14C1226.08 2112.64 1238.71 2118.76 1252.13 2123.5C1265.95 2127.84 1278.58 2132.18 1290.02 2136.52C1301.87 2140.47 1311.54 2145.01 1319.03 2150.14C1326.93 2154.87 1330.88 2161.19 1330.88 2169.08C1330.88 2178.16 1326.53 2184.87 1317.85 2189.21C1309.56 2193.56 1300.09 2195.73 1289.43 2195.73Z" fill="#0A27F1"/>
<path d="M1659.79 2176.19C1651.1 2184.48 1641.43 2190.79 1630.78 2195.13C1620.51 2199.48 1609.07 2201.65 1596.44 2201.65C1588.94 2201.65 1581.83 2200.66 1575.12 2198.69C1568.81 2196.32 1563.08 2193.36 1557.95 2189.81C1552.82 2185.86 1548.68 2181.12 1545.52 2175.6C1542.76 2169.68 1541.38 2163.16 1541.38 2156.06C1541.38 2148.56 1542.95 2142.05 1546.11 2136.52C1549.66 2130.6 1554.2 2125.67 1559.73 2121.72C1565.26 2117.77 1571.77 2114.81 1579.27 2112.84C1587.16 2110.86 1595.45 2109.88 1604.13 2109.88C1615.58 2109.88 1626.04 2111.26 1635.51 2114.02C1644.99 2116.39 1653.08 2119.35 1659.79 2122.9V2176.19ZM1748.6 2259.67V2071.39C1748.6 2050.08 1745.24 2031.33 1738.53 2015.15C1732.22 1998.97 1722.74 1985.35 1710.11 1974.3C1697.48 1963.24 1681.89 1954.96 1663.34 1949.43C1644.79 1943.9 1623.28 1941.14 1598.81 1941.14C1574.33 1941.14 1552.03 1943.51 1531.9 1948.25C1512.17 1952.98 1493.81 1958.9 1476.84 1966.01V2034.09C1494.6 2026.2 1511.77 2020.67 1528.35 2017.52C1544.93 2013.96 1561.7 2012.19 1578.68 2012.19C1604.73 2012.19 1624.66 2016.53 1638.47 2025.21C1652.68 2033.9 1659.79 2048.11 1659.79 2067.84V2074.95C1649.52 2070.6 1637.09 2067.05 1622.49 2064.29C1608.28 2061.53 1593.28 2060.15 1577.49 2060.15C1560.12 2060.15 1543.74 2062.12 1528.35 2066.07C1513.35 2070.01 1500.13 2075.93 1488.68 2083.83C1477.63 2091.72 1468.75 2101.98 1462.04 2114.61C1455.33 2127.24 1451.97 2142.05 1451.97 2159.02C1451.97 2175.6 1454.94 2190.2 1460.86 2202.83C1467.17 2215.46 1475.46 2226.32 1485.72 2235.39C1495.98 2244.08 1507.83 2250.59 1521.25 2254.93C1535.06 2259.67 1549.47 2262.04 1564.47 2262.04C1584.99 2262.04 1602.75 2258.68 1617.75 2251.97C1633.14 2244.87 1646.76 2235.2 1658.6 2222.96L1748.6 2259.67Z" fill="#0A27F1"/>
<path d="M1891.26 2086.2C1891.26 2075.14 1893.03 2065.08 1896.59 2056C1900.53 2046.92 1905.86 2039.03 1912.57 2032.32C1919.28 2025.61 1927.37 2020.48 1936.85 2016.92C1946.32 2013.37 1956.58 2011.6 1967.63 2011.6C1978.69 2011.6 1988.95 2013.57 1998.42 2017.52C2007.89 2021.07 2015.99 2026.2 2022.7 2032.91C2029.8 2039.23 2035.33 2046.92 2039.27 2056C2043.22 2065.08 2045.19 2074.95 2045.19 2085.6C2045.19 2096.26 2043.22 2106.13 2039.27 2115.21C2035.33 2124.28 2029.8 2132.18 2022.7 2138.89C2015.99 2145.6 2007.89 2150.93 1998.42 2154.87C1988.95 2158.43 1978.69 2160.2 1967.63 2160.2C1956.58 2160.2 1946.32 2158.43 1936.85 2154.87C1927.77 2150.93 1919.68 2145.8 1912.57 2139.48C1905.86 2132.77 1900.53 2124.88 1896.59 2115.8C1893.03 2106.72 1891.26 2096.85 1891.26 2086.2ZM1946.32 2289.27C1934.08 2289.27 1921.85 2288.09 1909.61 2285.72C1897.77 2283.35 1886.13 2280.19 1874.68 2276.25C1863.23 2272.3 1852.38 2267.76 1842.12 2262.63C1832.25 2257.5 1823.17 2252.17 1814.88 2246.64V2323.61C1825.15 2328.74 1835.21 2333.28 1845.08 2337.23C1855.34 2341.57 1865.8 2345.12 1876.46 2347.89C1887.11 2351.04 1898.17 2353.41 1909.61 2354.99C1921.45 2356.57 1934.08 2357.36 1947.5 2357.36C1974.74 2357.36 1999.8 2353.81 2022.7 2346.7C2045.59 2339.99 2065.32 2329.73 2081.9 2315.91C2098.48 2302.1 2111.31 2284.93 2120.38 2264.4C2129.86 2243.88 2134.59 2219.8 2134.59 2192.17V1946.47L2041.64 1985.55C2029.41 1972.13 2015.39 1961.07 1999.6 1952.39C1984.21 1943.71 1965.07 1939.37 1942.18 1939.37C1922.83 1939.37 1904.68 1942.92 1887.71 1950.02C1870.73 1956.73 1855.73 1966.4 1842.71 1979.03C1829.68 1991.66 1819.42 2007.06 1811.92 2025.21C1804.82 2043.37 1801.27 2063.7 1801.27 2086.2C1801.27 2108.3 1804.82 2128.43 1811.92 2146.59C1819.42 2164.35 1829.49 2179.74 1842.12 2192.77C1854.75 2205.4 1869.55 2215.26 1886.52 2222.37C1903.89 2229.08 1922.24 2232.43 1941.58 2232.43C1965.66 2232.43 1985.79 2227.5 2001.97 2217.63C2018.55 2207.76 2032.96 2195.53 2045.19 2180.92V2201.05C2045.19 2231.05 2036.51 2253.16 2019.14 2267.37C2001.78 2281.97 1977.5 2289.27 1946.32 2289.27Z" fill="#0A27F1"/>
<path d="M2354.35 2195.73C2338.57 2195.73 2324.95 2192.77 2313.5 2186.85C2302.06 2180.92 2292.78 2172.64 2285.68 2161.98L2500 2107.51C2499.21 2085.8 2495.46 2064.88 2488.75 2044.75C2482.04 2024.23 2472.17 2006.47 2459.15 1991.47C2446.52 1976.07 2430.93 1963.84 2412.38 1954.76C2393.82 1945.68 2372.51 1941.14 2348.43 1941.14C2325.15 1941.14 2303.83 1945.29 2284.49 1953.57C2265.55 1961.47 2249.17 1972.72 2235.35 1987.32C2221.54 2001.53 2210.68 2018.5 2202.79 2038.24C2195.29 2057.58 2191.54 2078.7 2191.54 2101.59C2191.54 2125.27 2195.49 2146.98 2203.38 2166.72C2211.27 2186.45 2222.32 2203.62 2236.53 2218.22C2250.74 2232.43 2267.52 2243.68 2286.86 2251.97C2306.59 2259.87 2328.3 2263.81 2351.99 2263.81C2361.46 2263.81 2371.13 2263.02 2381 2261.44C2391.26 2260.26 2401.52 2258.29 2411.78 2255.52C2422.05 2253.16 2432.11 2249.8 2441.98 2245.46C2452.24 2241.12 2461.71 2235.79 2470.4 2229.47V2153.69C2463.69 2160.01 2455.6 2165.73 2446.12 2170.86C2437.04 2175.99 2427.37 2180.53 2417.11 2184.48C2406.85 2188.03 2396.39 2190.79 2385.73 2192.77C2375.08 2194.74 2364.62 2195.73 2354.35 2195.73ZM2277.98 2097.44C2277.98 2087.18 2279.16 2076.92 2281.53 2066.66C2284.29 2056.4 2288.24 2047.12 2293.37 2038.83C2298.9 2030.54 2305.8 2023.83 2314.09 2018.7C2322.78 2013.18 2332.84 2010.41 2344.29 2010.41C2361.26 2010.41 2375.47 2015.54 2386.92 2025.81C2398.36 2036.07 2406.06 2049.69 2410.01 2066.66L2279.16 2100.41L2277.98 2097.44Z" fill="#0A27F1"/>
</svg>
