<svg width="378" height="142" viewBox="0 0 378 142" fill="none" xmlns="http://www.w3.org/2000/svg">
<rect x="0.585938" y="133.67" width="376.906" height="7.46829" fill="#0A27F1"/>
<path d="M63.8359 54.2145C63.8359 57.3579 63.2226 60.0795 61.9959 62.3795C60.8459 64.6795 59.3126 66.6345 57.3959 68.2445C55.4793 69.7779 53.2943 70.9279 50.8409 71.6945C48.3876 72.4612 45.8959 72.8445 43.3659 72.8445C39.9926 72.8445 36.8109 72.1929 33.8209 70.8895C30.8309 69.5862 28.2243 67.7845 26.0009 65.4845C23.8543 63.1845 22.1676 60.4245 20.9409 57.2045C19.7143 53.9845 19.1009 50.4962 19.1009 46.7395C19.1009 43.2129 19.7526 39.8779 21.0559 36.7345C22.4359 33.5912 24.2759 30.8312 26.5759 28.4545C28.9526 26.0779 31.7126 24.2379 34.8559 22.9345C37.9993 21.5545 41.4493 20.8645 45.2059 20.8645C49.5759 20.8645 53.6393 21.6312 57.3959 23.1645C61.2293 24.6979 64.6026 26.7679 67.5159 29.3745V10.0545C64.2193 8.21453 60.5009 6.87286 56.3609 6.02953C52.2976 5.10953 48.1959 4.64953 44.0559 4.64953C37.9226 4.64953 32.1726 5.7612 26.8059 7.98453C21.5159 10.1312 16.9159 13.1212 13.0059 16.9545C9.1726 20.7112 6.14427 25.1195 3.92094 30.1795C1.6976 35.2395 0.585938 40.7212 0.585938 46.6245C0.585938 52.6045 1.65927 58.1629 3.80594 63.2995C5.9526 68.4362 8.90427 72.8829 12.6609 76.6395C16.4176 80.3962 20.8259 83.3479 25.8859 85.4945C31.0226 87.6412 36.5043 88.7145 42.3309 88.7145C47.6976 88.7145 52.7193 87.8712 57.3959 86.1845C62.0726 84.4212 66.1359 81.7762 69.5859 78.2495C73.1126 74.6462 75.8726 70.0462 77.8659 64.4495C79.9359 58.8529 80.9709 52.1829 80.9709 44.4395V40.2995H45.2059V54.2145H63.8359Z" fill="#0A27F1"/>
<path d="M156.985 56.8595C156.985 52.5662 156.18 48.5412 154.57 44.7845C152.96 40.9512 150.698 37.6162 147.785 34.7795C144.872 31.9429 141.383 29.7195 137.32 28.1095C133.333 26.4995 128.963 25.6945 124.21 25.6945C119.457 25.6945 115.087 26.5379 111.1 28.2245C107.113 29.8345 103.625 32.0579 100.635 34.8945C97.7217 37.7312 95.46 41.0662 93.85 44.8995C92.24 48.6562 91.435 52.7195 91.435 57.0895C91.435 61.3829 92.24 65.4462 93.85 69.2795C95.46 73.0362 97.7217 76.3329 100.635 79.1695C103.548 82.0062 106.998 84.2679 110.985 85.9545C114.972 87.5645 119.342 88.3695 124.095 88.3695C128.848 88.3695 133.218 87.5262 137.205 85.8395C141.268 84.1529 144.757 81.8912 147.67 79.0545C150.583 76.2179 152.845 72.8829 154.455 69.0495C156.142 65.2162 156.985 61.1529 156.985 56.8595ZM139.62 56.9745C139.62 59.1979 139.237 61.3062 138.47 63.2995C137.78 65.2929 136.745 67.0562 135.365 68.5895C134.062 70.0462 132.452 71.2345 130.535 72.1545C128.618 72.9979 126.51 73.4195 124.21 73.4195C122.063 73.4195 120.032 72.9979 118.115 72.1545C116.198 71.2345 114.55 70.0462 113.17 68.5895C111.79 67.0562 110.717 65.2929 109.95 63.2995C109.183 61.3062 108.8 59.1595 108.8 56.8595C108.8 54.6362 109.145 52.5279 109.835 50.5345C110.602 48.5412 111.637 46.8162 112.94 45.3595C114.243 43.9029 115.815 42.7529 117.655 41.9095C119.572 41.0662 121.68 40.6445 123.98 40.6445C126.28 40.6445 128.388 41.1045 130.305 42.0245C132.222 42.8679 133.87 44.0562 135.25 45.5895C136.63 47.0462 137.703 48.7712 138.47 50.7645C139.237 52.6812 139.62 54.7512 139.62 56.9745Z" fill="#0A27F1"/>
<path d="M187.877 75.4895C186.19 75.4895 184.389 75.2595 182.472 74.7995C180.632 74.3395 178.754 73.7645 176.837 73.0745C174.997 72.3079 173.119 71.4262 171.202 70.4295C169.362 69.3562 167.675 68.2445 166.142 67.0945V82.2745C169.745 83.9612 173.349 85.3795 176.952 86.5295C180.555 87.6795 184.542 88.2545 188.912 88.2545C192.439 88.2545 195.62 87.8329 198.457 86.9895C201.294 86.0695 203.709 84.8045 205.702 83.1945C207.772 81.5079 209.344 79.5145 210.417 77.2145C211.567 74.8379 212.142 72.1929 212.142 69.2795C212.142 65.9062 211.375 63.1079 209.842 60.8845C208.385 58.6612 206.507 56.8212 204.207 55.3645C201.984 53.8312 199.53 52.6045 196.847 51.6845C194.24 50.6879 191.787 49.8062 189.487 49.0395C187.264 48.1962 185.385 47.3145 183.852 46.3945C182.395 45.3979 181.667 44.1712 181.667 42.7145C181.667 41.5645 182.165 40.6062 183.162 39.8395C184.235 38.9962 185.807 38.5745 187.877 38.5745C189.18 38.5745 190.675 38.7662 192.362 39.1495C194.049 39.5329 195.735 40.0312 197.422 40.6445C199.185 41.2579 200.91 41.9862 202.597 42.8295C204.284 43.6729 205.855 44.5545 207.312 45.4745V30.2945C205.779 29.5279 204.245 28.8762 202.712 28.3395C201.255 27.8029 199.76 27.3429 198.227 26.9595C196.694 26.5762 195.045 26.3079 193.282 26.1545C191.595 25.9245 189.794 25.8095 187.877 25.8095C184.58 25.8095 181.552 26.2312 178.792 27.0745C176.032 27.8412 173.655 29.0295 171.662 30.6395C169.745 32.1729 168.212 34.0512 167.062 36.2745C165.989 38.4979 165.452 41.0662 165.452 43.9795C165.452 47.3529 166.18 50.1512 167.637 52.3745C169.17 54.5979 171.049 56.4379 173.272 57.8945C175.572 59.3512 178.025 60.5395 180.632 61.4595C183.315 62.3029 185.769 63.1462 187.992 63.9895C190.292 64.7562 192.17 65.6379 193.627 66.6345C195.16 67.5545 195.927 68.7812 195.927 70.3145C195.927 72.0779 195.084 73.3812 193.397 74.2245C191.787 75.0679 189.947 75.4895 187.877 75.4895Z" fill="#0A27F1"/>
<path d="M242.794 75.4895C241.107 75.4895 239.306 75.2595 237.389 74.7995C235.549 74.3395 233.671 73.7645 231.754 73.0745C229.914 72.3079 228.036 71.4262 226.119 70.4295C224.279 69.3562 222.592 68.2445 221.059 67.0945V82.2745C224.662 83.9612 228.266 85.3795 231.869 86.5295C235.472 87.6795 239.459 88.2545 243.829 88.2545C247.356 88.2545 250.537 87.8329 253.374 86.9895C256.211 86.0695 258.626 84.8045 260.619 83.1945C262.689 81.5079 264.261 79.5145 265.334 77.2145C266.484 74.8379 267.059 72.1929 267.059 69.2795C267.059 65.9062 266.292 63.1079 264.759 60.8845C263.302 58.6612 261.424 56.8212 259.124 55.3645C256.901 53.8312 254.447 52.6045 251.764 51.6845C249.157 50.6879 246.704 49.8062 244.404 49.0395C242.181 48.1962 240.302 47.3145 238.769 46.3945C237.312 45.3979 236.584 44.1712 236.584 42.7145C236.584 41.5645 237.082 40.6062 238.079 39.8395C239.152 38.9962 240.724 38.5745 242.794 38.5745C244.097 38.5745 245.592 38.7662 247.279 39.1495C248.966 39.5329 250.652 40.0312 252.339 40.6445C254.102 41.2579 255.827 41.9862 257.514 42.8295C259.201 43.6729 260.772 44.5545 262.229 45.4745V30.2945C260.696 29.5279 259.162 28.8762 257.629 28.3395C256.172 27.8029 254.677 27.3429 253.144 26.9595C251.611 26.5762 249.962 26.3079 248.199 26.1545C246.512 25.9245 244.711 25.8095 242.794 25.8095C239.497 25.8095 236.469 26.2312 233.709 27.0745C230.949 27.8412 228.572 29.0295 226.579 30.6395C224.662 32.1729 223.129 34.0512 221.979 36.2745C220.906 38.4979 220.369 41.0662 220.369 43.9795C220.369 47.3529 221.097 50.1512 222.554 52.3745C224.087 54.5979 225.966 56.4379 228.189 57.8945C230.489 59.3512 232.942 60.5395 235.549 61.4595C238.232 62.3029 240.686 63.1462 242.909 63.9895C245.209 64.7562 247.087 65.6379 248.544 66.6345C250.077 67.5545 250.844 68.7812 250.844 70.3145C250.844 72.0779 250.001 73.3812 248.314 74.2245C246.704 75.0679 244.864 75.4895 242.794 75.4895Z" fill="#0A27F1"/>
<path d="M297.251 27.0745H279.541V86.9895H297.251V27.0745ZM277.816 10.1695C277.816 13.1595 278.813 15.5362 280.806 17.2995C282.876 18.9862 285.368 19.8295 288.281 19.8295C291.271 19.8295 293.763 18.9862 295.756 17.2995C297.826 15.5362 298.861 13.1595 298.861 10.1695C298.861 7.0262 297.826 4.6112 295.756 2.92453C293.763 1.23787 291.271 0.394531 288.281 0.394531C285.368 0.394531 282.876 1.23787 280.806 2.92453C278.813 4.6112 277.816 7.0262 277.816 10.1695Z" fill="#0A27F1"/>
<path d="M330.225 78.7095C332.449 81.4695 335.132 83.7695 338.275 85.6095C341.419 87.3729 345.329 88.2545 350.005 88.2545C353.685 88.2545 357.174 87.5262 360.47 86.0695C363.767 84.6129 366.68 82.5429 369.21 79.8595C371.74 77.1762 373.734 73.9179 375.19 70.0845C376.724 66.1745 377.49 61.8045 377.49 56.9745C377.49 52.1445 376.724 47.8129 375.19 43.9795C373.734 40.0695 371.74 36.7729 369.21 34.0895C366.68 31.4062 363.729 29.3362 360.355 27.8795C357.059 26.4229 353.57 25.6945 349.89 25.6945C345.29 25.6945 341.495 26.6529 338.505 28.5695C335.592 30.4095 332.985 32.7095 330.685 35.4695L312.515 27.0745V106.425H330.225V78.7095ZM360.01 56.8595C360.01 59.3895 359.627 61.6895 358.86 63.7595C358.094 65.7529 357.02 67.4779 355.64 68.9345C354.26 70.3912 352.65 71.5029 350.81 72.2695C348.97 73.0362 347.015 73.4195 344.945 73.4195C342.875 73.4195 340.92 73.0362 339.08 72.2695C337.24 71.4262 335.63 70.2762 334.25 68.8195C332.947 67.3629 331.874 65.6379 331.03 63.6445C330.264 61.6512 329.88 59.4662 329.88 57.0895C329.88 54.7129 330.264 52.5279 331.03 50.5345C331.874 48.4645 332.947 46.7012 334.25 45.2445C335.63 43.7879 337.202 42.6762 338.965 41.9095C340.805 41.0662 342.76 40.6445 344.83 40.6445C346.977 40.6445 348.97 41.0279 350.81 41.7945C352.65 42.5612 354.26 43.6729 355.64 45.1295C357.02 46.5862 358.094 48.3112 358.86 50.3045C359.627 52.2979 360.01 54.4829 360.01 56.8595Z" fill="#0A27F1"/>
</svg>
